<svg width="36" height="72" viewBox="0 0 36 72" fill="none" xmlns="http://www.w3.org/2000/svg">
    <path d="M13.7 52.7C15.2 51.8 16.2 50.7 17 49.2C18.1 47.3 17.8 45.3 17.7 43.3H16.9C17.3 41.6 17.3 41.5 16.6 40.3C15.2 38 13.1 36.8 10.5 36.7C9.2 36.6 7.9 36.7 7.2 36.7C5 37.5 3.3 38.5 2.3 40C1.2 41.6 1.1 43.5 0.400002 45.2C1.3 46.4 1.1 48.1 1.9 49.4C2.7 50.8 4 51.7 4.7 52.7C6.5 53.2 8.2 54.3 9.5 54C10.8 53.7 12.3 53.5 13.7 52.7ZM8.2 42.9C9 42.6 9.5 42.7 9.2 44C8.7 43.7 8.4 43.4 8.2 42.9ZM4.1 45.8C4.9 46 4.2 46.5 4.3 46.8C3.8 46.5 3.8 46.2 4.1 45.8ZM12.9 46.6C13.4 46.2 13.7 46.2 14.1 46.5C13.8 47.2 13.4 47 12.9 46.6Z" fill="#F38B00"/>
    <path d="M31.3 34.9C32.7 34.1 34.6 32.3 35.3 30.9C36.4 28.9 35.8 26.7 35.9 25.4C35 21.3 32.5 20 30 18.6C29 18.6 27.8 18.6 26.6 18.6C24 18.6 21.5 20.2 20.1 22.6C19.8 23.2 19.8 24 19.1 24.3C18.4 30.6 19.8 33.1 25 35.6C27 35.3 29.2 36 31.3 34.9ZM20.8 25.5C21.2 25.1 21.6 25.1 22 25.5C21.6 25.9 21.2 25.9 20.8 25.5ZM32.3 27.4C32.5 26.7 32.9 26.9 33.5 27.3C33 27.7 32.7 27.7 32.3 27.4ZM26.8 30.2C26.6 30.7 26.3 31 25.7 31.2C25.4 30.3 25.6 29.8 26.8 30.2Z" fill="#F38B00"/>
    <path d="M17.9 10.6C17.6 10.4 17 10.1 16.4 9.80001C17 9.60001 17.4 9.40001 17.7 9.30001C17.7 9.10001 17.8 8.90001 17.8 8.70001C18.5 4.50001 13.9 -0.199991 9.6 0.400009C8.6 0.500009 7.6 0.400009 6.6 0.400009C4.3 1.10001 3 2.90001 1.7 4.20001C1.2 5.90001 0.8 7.50001 0.5 8.80001C1.1 12.1 2.3 14.8 4.8 16.6C7.5 17.7 10 17.6 12.5 16.7C15 15.8 17 14.1 17.9 10.6ZM10.6 7.50001C10.4 6.50001 11.2 6.40001 11.5 5.90001C12.6 6.00001 12.9 6.60001 13.1 7.50001C12.1 7.80001 11.3 7.80001 10.6 7.50001Z" fill="#F38B00"/>
    <path d="M34.9 67.6C36.1 65.5 35.7 63.5 35.9 61.6C35.4 61.3 34.9 61.5 34.7 61C36.2 59.7 34.6 58.8 34.4 57.7C33.8 57.9 34.3 58.7 33.7 58.9C33 59 32.7 58.4 32.3 58C32.4 57.4 33.6 58 33.5 57.1C31.1 54.3 27.9 54.6 24.9 54.7C22.8 55.8 20.7 56.6 19.9 58.9C19.1 61.1 18.5 63.5 19.1 65.7C19.5 67.4 20.6 69 22.1 70.1C24.5 71.8 27.2 71.6 30 71.5C31.9 70.5 33.7 69.7 34.9 67.6ZM28.4 56.9C29.4 56.5 30.2 56.5 31.2 56.9C30.2 57.3 29.4 57.3 28.4 56.9ZM27.4 58.7C27.8 58.3 28.2 58.3 28.6 58.7C28.2 59.1 27.8 59.1 27.4 58.7ZM29.2 58.7C29.6 58.3 30 58.3 30.4 58.7C30 59.1 29.6 59.1 29.2 58.7Z" fill="#F38B00"/>
</svg>
