<svg width="1208" height="5529" viewBox="0 0 1208 5529" fill="none" xmlns="http://www.w3.org/2000/svg">
    <path d="M1 0L1.00024 5529" stroke="#F2F4F4"/>
    <path d="M169 0L169 5529" stroke="#F2F4F4"/>
    <path d="M209 0L209 5529" stroke="#F2F4F4"/>
    <path d="M416 0L416 5529" stroke="#F2F4F4"/>
    <path d="M624 0L624 5529" stroke="#F2F4F4"/>
    <path d="M832 0L832 5529" stroke="#F2F4F4"/>
    <path d="M1039 0L1039 5529" stroke="#F2F4F4"/>
    <path d="M584 0L584 5529" stroke="#F2F4F4"/>
    <path d="M792 0L792 5529" stroke="#F2F4F4"/>
    <path d="M999 0L999 5529" stroke="#F2F4F4"/>
    <path d="M65 0L65.0002 5529" stroke="#F2F4F4"/>
    <path d="M105 0L105 5529" stroke="#F2F4F4"/>
    <path d="M520 0L520 5529" stroke="#F2F4F4"/>
    <path d="M728 0L728 5529" stroke="#F2F4F4"/>
    <path d="M935 0L935 5529" stroke="#F2F4F4"/>
    <path d="M1143 0L1143 5529" stroke="#F2F4F4"/>
    <path d="M313 0L313 5529" stroke="#F2F4F4"/>
    <path d="M273 0L273 5529" stroke="#F2F4F4"/>
    <path d="M480 0L480 5529" stroke="#F2F4F4"/>
    <path d="M688 0L688 5529" stroke="#F2F4F4"/>
    <path d="M895 0L895 5529" stroke="#F2F4F4"/>
    <path d="M1103 0L1103 5529" stroke="#F2F4F4"/>
    <path d="M1207 0L1207 5529" stroke="#F2F4F4"/>
    <path d="M376 0L376 5529" stroke="#F2F4F4"/>
</svg>
